<svg width="350" height="90" viewBox="0 0 350 90" fill="none" xmlns="http://www.w3.org/2000/svg">
<line x1="15" y1="81.75" y2="81.75" stroke="#EAEBEA" stroke-width="1.5"/>
<line x1="27.75" y1="1.5" x2="27.75" y2="7.5" stroke="#EAEBEA" stroke-width="1.5"/>
<path d="M28.5 0.75L0 0.75" stroke="#EAEBEA" stroke-width="1.5"/>
<line x1="0.75" x2="0.75" y2="81" stroke="#EAEBEA" stroke-width="1.5"/>
<line x1="45" y1="8.25" x2="13.5" y2="8.25" stroke="#EAEBEA" stroke-width="1.5"/>
<line x1="14.25" y1="9" x2="14.25" y2="90" stroke="#EAEBEA" stroke-width="1.5"/>
<line x1="15" y1="89.25" x2="45" y2="89.25" stroke="#EAEBEA" stroke-width="1.5"/>
<line x1="44.25" y1="22.5" x2="44.25" y2="7.5" stroke="#EAEBEA" stroke-width="1.5"/>
<line x1="44.25" y1="90" x2="44.25" y2="75" stroke="#EAEBEA" stroke-width="1.5"/>
<path d="M50.7773 55.7852V20.3125H61.2891V55.7852C61.2891 59.207 60.5391 62.1484 59.0391 64.6094C57.5391 67.0469 55.4883 68.9219 52.8867 70.2344C50.3086 71.5469 47.4023 72.2031 44.168 72.2031C40.8164 72.2031 37.8516 71.6406 35.2734 70.5156C32.6953 69.3906 30.668 67.668 29.1914 65.3477C27.7148 63.0039 26.9766 60.0391 26.9766 56.4531H37.5586C37.5586 58.3281 37.8164 59.8164 38.332 60.918C38.8711 62.0195 39.6328 62.8047 40.6172 63.2734C41.6016 63.7422 42.7852 63.9766 44.168 63.9766C45.5039 63.9766 46.6641 63.6602 47.6484 63.0273C48.6328 62.3945 49.3945 61.4688 49.9336 60.25C50.4961 59.0312 50.7773 57.543 50.7773 55.7852ZM87.1641 72.2031C84.2109 72.2031 81.5625 71.7344 79.2188 70.7969C76.875 69.8359 74.8828 68.5117 73.2422 66.8242C71.625 65.1367 70.3828 63.1797 69.5156 60.9531C68.6484 58.7031 68.2148 56.3125 68.2148 53.7812V52.375C68.2148 49.4922 68.625 46.8555 69.4453 44.4648C70.2656 42.0742 71.4375 40 72.9609 38.2422C74.5078 36.4844 76.3828 35.1367 78.5859 34.1992C80.7891 33.2383 83.2734 32.7578 86.0391 32.7578C88.7344 32.7578 91.125 33.2031 93.2109 34.0938C95.2969 34.9844 97.043 36.25 98.4492 37.8906C99.8789 39.5312 100.957 41.5 101.684 43.7969C102.41 46.0703 102.773 48.6016 102.773 51.3906V55.6094H72.5391V48.8594H92.8242V48.0859C92.8242 46.6797 92.5664 45.4258 92.0508 44.3242C91.5586 43.1992 90.8086 42.3086 89.8008 41.6523C88.793 40.9961 87.5039 40.668 85.9336 40.668C84.5977 40.668 83.4492 40.9609 82.4883 41.5469C81.5273 42.1328 80.7422 42.9531 80.1328 44.0078C79.5469 45.0625 79.1016 46.3047 78.7969 47.7344C78.5156 49.1406 78.375 50.6875 78.375 52.375V53.7812C78.375 55.3047 78.5859 56.7109 79.0078 58C79.4531 59.2891 80.0742 60.4023 80.8711 61.3398C81.6914 62.2773 82.6758 63.0039 83.8242 63.5195C84.9961 64.0352 86.3203 64.293 87.7969 64.293C89.625 64.293 91.3242 63.9414 92.8945 63.2383C94.4883 62.5117 95.8594 61.4219 97.0078 59.9688L101.93 65.3125C101.133 66.4609 100.043 67.5625 98.6602 68.6172C97.3008 69.6719 95.6602 70.5391 93.7383 71.2188C91.8164 71.875 89.625 72.2031 87.1641 72.2031ZM118.664 41.7578V71.5H108.539V33.4609H118.066L118.664 41.7578ZM130.125 33.2148L129.949 42.6016C129.457 42.5312 128.859 42.4727 128.156 42.4258C127.477 42.3555 126.855 42.3203 126.293 42.3203C124.863 42.3203 123.621 42.5078 122.566 42.8828C121.535 43.2344 120.668 43.7617 119.965 44.4648C119.285 45.168 118.77 46.0234 118.418 47.0312C118.09 48.0391 117.902 49.1875 117.855 50.4766L115.816 49.8438C115.816 47.3828 116.062 45.1211 116.555 43.0586C117.047 40.9727 117.762 39.1562 118.699 37.6094C119.66 36.0625 120.832 34.8672 122.215 34.0234C123.598 33.1797 125.18 32.7578 126.961 32.7578C127.523 32.7578 128.098 32.8047 128.684 32.8984C129.27 32.9688 129.75 33.0742 130.125 33.2148ZM145.031 41.7578V71.5H134.906V33.4609H144.434L145.031 41.7578ZM156.492 33.2148L156.316 42.6016C155.824 42.5312 155.227 42.4727 154.523 42.4258C153.844 42.3555 153.223 42.3203 152.66 42.3203C151.23 42.3203 149.988 42.5078 148.934 42.8828C147.902 43.2344 147.035 43.7617 146.332 44.4648C145.652 45.168 145.137 46.0234 144.785 47.0312C144.457 48.0391 144.27 49.1875 144.223 50.4766L142.184 49.8438C142.184 47.3828 142.43 45.1211 142.922 43.0586C143.414 40.9727 144.129 39.1562 145.066 37.6094C146.027 36.0625 147.199 34.8672 148.582 34.0234C149.965 33.1797 151.547 32.7578 153.328 32.7578C153.891 32.7578 154.465 32.8047 155.051 32.8984C155.637 32.9688 156.117 33.0742 156.492 33.2148ZM173.191 67.2109L183.281 33.4609H194.145L178.852 77.2305C178.523 78.1914 178.078 79.2227 177.516 80.3242C176.977 81.4258 176.238 82.4688 175.301 83.4531C174.387 84.4609 173.227 85.2812 171.82 85.9141C170.438 86.5469 168.738 86.8633 166.723 86.8633C165.762 86.8633 164.977 86.8047 164.367 86.6875C163.758 86.5703 163.031 86.4062 162.188 86.1953V78.7773C162.445 78.7773 162.715 78.7773 162.996 78.7773C163.277 78.8008 163.547 78.8125 163.805 78.8125C165.141 78.8125 166.23 78.6602 167.074 78.3555C167.918 78.0508 168.598 77.582 169.113 76.9492C169.629 76.3398 170.039 75.543 170.344 74.5586L173.191 67.2109ZM168.973 33.4609L177.234 61.0234L178.676 71.7461L171.785 72.4844L158.109 33.4609H168.973ZM221.707 20.3125V71.5H211.195V20.3125H221.707ZM237.457 20.3125V28.5742H195.691V20.3125H237.457ZM251.379 67.2109L261.469 33.4609H272.332L257.039 77.2305C256.711 78.1914 256.266 79.2227 255.703 80.3242C255.164 81.4258 254.426 82.4688 253.488 83.4531C252.574 84.4609 251.414 85.2812 250.008 85.9141C248.625 86.5469 246.926 86.8633 244.91 86.8633C243.949 86.8633 243.164 86.8047 242.555 86.6875C241.945 86.5703 241.219 86.4062 240.375 86.1953V78.7773C240.633 78.7773 240.902 78.7773 241.184 78.7773C241.465 78.8008 241.734 78.8125 241.992 78.8125C243.328 78.8125 244.418 78.6602 245.262 78.3555C246.105 78.0508 246.785 77.582 247.301 76.9492C247.816 76.3398 248.227 75.543 248.531 74.5586L251.379 67.2109ZM247.16 33.4609L255.422 61.0234L256.863 71.7461L249.973 72.4844L236.297 33.4609H247.16ZM286.5 40.7734V86.125H276.375V33.4609H285.762L286.5 40.7734ZM310.582 52.0586V52.7969C310.582 55.5625 310.254 58.1289 309.598 60.4961C308.965 62.8633 308.027 64.9258 306.785 66.6836C305.543 68.418 303.996 69.7773 302.145 70.7617C300.316 71.7227 298.207 72.2031 295.816 72.2031C293.496 72.2031 291.48 71.7344 289.77 70.7969C288.059 69.8594 286.617 68.5469 285.445 66.8594C284.297 65.1484 283.371 63.168 282.668 60.918C281.965 58.668 281.426 56.2539 281.051 53.6758V51.7422C281.426 48.9766 281.965 46.4453 282.668 44.1484C283.371 41.8281 284.297 39.8242 285.445 38.1367C286.617 36.4258 288.047 35.1016 289.734 34.1641C291.445 33.2266 293.449 32.7578 295.746 32.7578C298.16 32.7578 300.281 33.2148 302.109 34.1289C303.961 35.043 305.508 36.3555 306.75 38.0664C308.016 39.7773 308.965 41.8164 309.598 44.1836C310.254 46.5508 310.582 49.1758 310.582 52.0586ZM300.422 52.7969V52.0586C300.422 50.4414 300.281 48.9531 300 47.5938C299.742 46.2109 299.32 45.0039 298.734 43.9727C298.172 42.9414 297.422 42.1445 296.484 41.582C295.57 40.9961 294.457 40.7031 293.145 40.7031C291.762 40.7031 290.578 40.9258 289.594 41.3711C288.633 41.8164 287.848 42.4609 287.238 43.3047C286.629 44.1484 286.172 45.1562 285.867 46.3281C285.562 47.5 285.375 48.8242 285.305 50.3008V55.1875C285.422 56.9219 285.75 58.4805 286.289 59.8633C286.828 61.2227 287.66 62.3008 288.785 63.0977C289.91 63.8945 291.387 64.293 293.215 64.293C294.551 64.293 295.676 64 296.59 63.4141C297.504 62.8047 298.242 61.9727 298.805 60.918C299.391 59.8633 299.801 58.6445 300.035 57.2617C300.293 55.8789 300.422 54.3906 300.422 52.7969ZM334.383 72.2031C331.43 72.2031 328.781 71.7344 326.438 70.7969C324.094 69.8359 322.102 68.5117 320.461 66.8242C318.844 65.1367 317.602 63.1797 316.734 60.9531C315.867 58.7031 315.434 56.3125 315.434 53.7812V52.375C315.434 49.4922 315.844 46.8555 316.664 44.4648C317.484 42.0742 318.656 40 320.18 38.2422C321.727 36.4844 323.602 35.1367 325.805 34.1992C328.008 33.2383 330.492 32.7578 333.258 32.7578C335.953 32.7578 338.344 33.2031 340.43 34.0938C342.516 34.9844 344.262 36.25 345.668 37.8906C347.098 39.5312 348.176 41.5 348.902 43.7969C349.629 46.0703 349.992 48.6016 349.992 51.3906V55.6094H319.758V48.8594H340.043V48.0859C340.043 46.6797 339.785 45.4258 339.27 44.3242C338.777 43.1992 338.027 42.3086 337.02 41.6523C336.012 40.9961 334.723 40.668 333.152 40.668C331.816 40.668 330.668 40.9609 329.707 41.5469C328.746 42.1328 327.961 42.9531 327.352 44.0078C326.766 45.0625 326.32 46.3047 326.016 47.7344C325.734 49.1406 325.594 50.6875 325.594 52.375V53.7812C325.594 55.3047 325.805 56.7109 326.227 58C326.672 59.2891 327.293 60.4023 328.09 61.3398C328.91 62.2773 329.895 63.0039 331.043 63.5195C332.215 64.0352 333.539 64.293 335.016 64.293C336.844 64.293 338.543 63.9414 340.113 63.2383C341.707 62.5117 343.078 61.4219 344.227 59.9688L349.148 65.3125C348.352 66.4609 347.262 67.5625 345.879 68.6172C344.52 69.6719 342.879 70.5391 340.957 71.2188C339.035 71.875 336.844 72.2031 334.383 72.2031Z" fill="#EAEBEA"/>
</svg>
